dataset
version=1
nRows=22
nColumns=39
inDegrees=no
endheader
time	sternoclavicular_r2	sternoclavicular_r3	unrotscap_r3	unrotscap_r2	acromioclavicular_r2	acromioclavicular_r3	acromioclavicular_r1	unrothum_r1	unrothum_r3	unrothum_r2	elv_angle	shoulder_elv	shoulder1_r2	shoulder_rot	elbow_flexion	pro_sup	deviation	flexion	cmc_abduction	cmc_flexion	mp_flexion	ip_flexion	mcp2_flexion	mcp2_abduction	pm2_flexion	md2_flexion	mcp3_flexion	mcp3_abduction	pm3_flexion	md3_flexion	mcp4_flexion	mcp4_abduction	pm4_flexion	md4_flexion	mcp5_flexion	mcp5_abduction	pm5_flexion	md5_flexion
5.100000	-0.057145	-0.524669	0.405261	0.175963	0.131806	0.213205	-0.348827	0.118160	-0.148502	0.123858	0.087830	0.027437	0.146525	0.146525	2.335466	3.855857	0.000000	0.000000	0.000000	0.000000	0.000000	0.000000	0.000000	0.000000	0.000000	0.000000	0.000000	0.000000	0.000000	0.000000	0.000000	0.000000	0.000000	0.000000	0.000000	0.000000	0.000000	0.000000
5.105000	-0.057065	-0.524939	0.405228	0.176094	0.131827	0.213772	-0.348514	0.118805	-0.148282	0.123693	0.087870	0.027437	0.146525	0.146525	2.341316	3.846406	0.000000	0.000000	0.000000	0.000000	0.000000	0.000000	0.000000	0.000000	0.000000	0.000000	0.000000	0.000000	0.000000	0.000000	0.000000	0.000000	0.000000	0.000000	0.000000	0.000000	0.000000	0.000000
5.110000	-0.056980	-0.525197	0.405171	0.176218	0.131843	0.214333	-0.348178	0.119432	-0.148038	0.123526	0.087913	0.027437	0.146525	0.146525	2.347088	3.836751	0.000000	0.000000	0.000000	0.000000	0.000000	0.000000	0.000000	0.000000	0.000000	0.000000	0.000000	0.000000	0.000000	0.000000	0.000000	0.000000	0.000000	0.000000	0.000000	0.000000	0.000000	0.000000
5.115000	-0.056889	-0.525442	0.405089	0.176335	0.131854	0.214885	-0.347820	0.120042	-0.147769	0.123358	0.087959	0.027437	0.146525	0.146525	2.352781	3.826890	0.000000	0.000000	0.000000	0.000000	0.000000	0.000000	0.000000	0.000000	0.000000	0.000000	0.000000	0.000000	0.000000	0.000000	0.000000	0.000000	0.000000	0.000000	0.000000	0.000000	0.000000	0.000000
5.120000	-0.056791	-0.525676	0.404985	0.176444	0.131859	0.215431	-0.347440	0.120634	-0.147477	0.123189	0.088007	0.027437	0.146525	0.146525	2.358394	3.816821	0.000000	0.000000	0.000000	0.000000	0.000000	0.000000	0.000000	0.000000	0.000000	0.000000	0.000000	0.000000	0.000000	0.000000	0.000000	0.000000	0.000000	0.000000	0.000000	0.000000	0.000000	0.000000
5.125000	-0.056688	-0.525897	0.404856	0.176547	0.131859	0.215968	-0.347039	0.121207	-0.147162	0.123018	0.088058	0.027437	0.146525	0.146525	2.363928	3.806540	0.000000	0.000000	0.000000	0.000000	0.000000	0.000000	0.000000	0.000000	0.000000	0.000000	0.000000	0.000000	0.000000	0.000000	0.000000	0.000000	0.000000	0.000000	0.000000	0.000000	0.000000	0.000000
5.130000	-0.056579	-0.526106	0.404705	0.176643	0.131854	0.216498	-0.346617	0.121763	-0.146824	0.122847	0.088110	0.027437	0.146525	0.146525	2.369380	3.796046	0.000000	0.000000	0.000000	0.000000	0.000000	0.000000	0.000000	0.000000	0.000000	0.000000	0.000000	0.000000	0.000000	0.000000	0.000000	0.000000	0.000000	0.000000	0.000000	0.000000	0.000000	0.000000
5.135000	-0.056464	-0.526303	0.404530	0.176731	0.131842	0.217020	-0.346175	0.122300	-0.146463	0.122673	0.088164	0.027437	0.146525	0.146525	2.374752	3.785337	0.000000	0.000000	0.000000	0.000000	0.000000	0.000000	0.000000	0.000000	0.000000	0.000000	0.000000	0.000000	0.000000	0.000000	0.000000	0.000000	0.000000	0.000000	0.000000	0.000000	0.000000	0.000000
5.140000	-0.056343	-0.526488	0.404334	0.176811	0.131825	0.217535	-0.345713	0.122818	-0.146081	0.122498	0.088220	0.027437	0.146525	0.146525	2.380043	3.774409	0.000000	0.000000	0.000000	0.000000	0.000000	0.000000	0.000000	0.000000	0.000000	0.000000	0.000000	0.000000	0.000000	0.000000	0.000000	0.000000	0.000000	0.000000	0.000000	0.000000	0.000000	0.000000
5.145000	-0.056217	-0.526660	0.404115	0.176884	0.131802	0.218042	-0.345231	0.123317	-0.145678	0.122322	0.088276	0.027437	0.146525	0.146525	2.385252	3.763262	0.000000	0.000000	0.000000	0.000000	0.000000	0.000000	0.000000	0.000000	0.000000	0.000000	0.000000	0.000000	0.000000	0.000000	0.000000	0.000000	0.000000	0.000000	0.000000	0.000000	0.000000	0.000000
5.150000	-0.056085	-0.526820	0.403874	0.176950	0.131772	0.218541	-0.344730	0.123798	-0.145253	0.122143	0.088333	0.027437	0.146525	0.146525	2.390378	3.751893	0.000000	0.000000	0.000000	0.000000	0.000000	0.000000	0.000000	0.000000	0.000000	0.000000	0.000000	0.000000	0.000000	0.000000	0.000000	0.000000	0.000000	0.000000	0.000000	0.000000	0.000000	0.000000
5.155000	-0.055947	-0.526968	0.403613	0.177007	0.131737	0.219032	-0.344210	0.124259	-0.144808	0.121962	0.088390	0.027437	0.146525	0.146525	2.395422	3.740300	0.000000	0.000000	0.000000	0.000000	0.000000	0.000000	0.000000	0.000000	0.000000	0.000000	0.000000	0.000000	0.000000	0.000000	0.000000	0.000000	0.000000	0.000000	0.000000	0.000000	0.000000	0.000000
5.160000	-0.055804	-0.527103	0.403330	0.177057	0.131695	0.219515	-0.343671	0.124701	-0.144344	0.121779	0.088448	0.027437	0.146525	0.146525	2.400382	3.728481	0.000000	0.000000	0.000000	0.000000	0.000000	0.000000	0.000000	0.000000	0.000000	0.000000	0.000000	0.000000	0.000000	0.000000	0.000000	0.000000	0.000000	0.000000	0.000000	0.000000	0.000000	0.000000
5.165000	-0.055656	-0.527227	0.403027	0.177098	0.131646	0.219991	-0.343115	0.125124	-0.143860	0.121592	0.088505	0.027437	0.146525	0.146525	2.405260	3.716436	0.000000	0.000000	0.000000	0.000000	0.000000	0.000000	0.000000	0.000000	0.000000	0.000000	0.000000	0.000000	0.000000	0.000000	0.000000	0.000000	0.000000	0.000000	0.000000	0.000000	0.000000	0.000000
5.170000	-0.055503	-0.527338	0.402704	0.177131	0.131591	0.220459	-0.342542	0.125527	-0.143357	0.121404	0.088561	0.027437	0.146525	0.146525	2.410053	3.704162	0.000000	0.000000	0.000000	0.000000	0.000000	0.000000	0.000000	0.000000	0.000000	0.000000	0.000000	0.000000	0.000000	0.000000	0.000000	0.000000	0.000000	0.000000	0.000000	0.000000	0.000000	0.000000
5.175000	-0.055344	-0.527437	0.402361	0.177155	0.131528	0.220919	-0.341952	0.125911	-0.142837	0.121211	0.088615	0.027437	0.146525	0.146525	2.414762	3.691658	0.000000	0.000000	0.000000	0.000000	0.000000	0.000000	0.000000	0.000000	0.000000	0.000000	0.000000	0.000000	0.000000	0.000000	0.000000	0.000000	0.000000	0.000000	0.000000	0.000000	0.000000	0.000000
5.180000	-0.055180	-0.527523	0.402000	0.177171	0.131459	0.221372	-0.341345	0.126276	-0.142299	0.121016	0.088668	0.027437	0.146525	0.146525	2.419387	3.678923	0.000000	0.000000	0.000000	0.000000	0.000000	0.000000	0.000000	0.000000	0.000000	0.000000	0.000000	0.000000	0.000000	0.000000	0.000000	0.000000	0.000000	0.000000	0.000000	0.000000	0.000000	0.000000
5.185000	-0.055011	-0.527598	0.401619	0.177178	0.131382	0.221817	-0.340723	0.126621	-0.141744	0.120817	0.088719	0.027437	0.146525	0.146525	2.423927	3.665956	0.000000	0.000000	0.000000	0.000000	0.000000	0.000000	0.000000	0.000000	0.000000	0.000000	0.000000	0.000000	0.000000	0.000000	0.000000	0.000000	0.000000	0.000000	0.000000	0.000000	0.000000	0.000000
5.190000	-0.054837	-0.527661	0.401221	0.177175	0.131297	0.222254	-0.340085	0.126947	-0.141174	0.120613	0.088768	0.027437	0.146525	0.146525	2.428382	3.652756	0.000000	0.000000	0.000000	0.000000	0.000000	0.000000	0.000000	0.000000	0.000000	0.000000	0.000000	0.000000	0.000000	0.000000	0.000000	0.000000	0.000000	0.000000	0.000000	0.000000	0.000000	0.000000
5.195000	-0.054657	-0.527711	0.400805	0.177164	0.131205	0.222685	-0.339433	0.127254	-0.140587	0.120406	0.088813	0.027437	0.146525	0.146525	2.432751	3.639323	0.000000	0.000000	0.000000	0.000000	0.000000	0.000000	0.000000	0.000000	0.000000	0.000000	0.000000	0.000000	0.000000	0.000000	0.000000	0.000000	0.000000	0.000000	0.000000	0.000000	0.000000	0.000000
5.200000	-0.054473	-0.527750	0.400371	0.177143	0.131105	0.223108	-0.338766	0.127541	-0.139986	0.120193	0.088854	0.027437	0.146525	0.146525	2.437035	3.625656	0.000000	0.000000	0.000000	0.000000	0.000000	0.000000	0.000000	0.000000	0.000000	0.000000	0.000000	0.000000	0.000000	0.000000	0.000000	0.000000	0.000000	0.000000	0.000000	0.000000	0.000000	0.000000
5.205000	-0.054284	-0.527778	0.399921	0.177113	0.130996	0.223523	-0.338085	0.127810	-0.139371	0.119976	0.088892	0.027437	0.146525	0.146525	2.441233	3.611756	0.000000	0.000000	0.000000	0.000000	0.000000	0.000000	0.000000	0.000000	0.000000	0.000000	0.000000	0.000000	0.000000	0.000000	0.000000	0.000000	0.000000	0.000000	0.000000	0.000000	0.000000	0.000000
